<svg width="407" height="257" viewBox="0 0 407 257" fill="none" xmlns="http://www.w3.org/2000/svg">
<path d="M72.3134 224V190.4H93.4814V195.392H77.4974V219.008H93.4814V224H72.3134ZM74.6654 209.264V204.272H90.8414V209.264H74.6654ZM106.118 213.824L105.83 208.016L123.446 190.4H130.262L106.118 213.824ZM101.798 224V190.4H106.982V224H101.798ZM124.07 224L111.206 206.816L115.046 203.504L130.55 224H124.07ZM143.338 224V195.392H133.93V190.4H158.218V195.392H148.522V224H143.338ZM164.61 224V190.4H185.778V195.392H169.794V219.008H185.778V224H164.61ZM166.962 209.264V204.272H183.138V209.264H166.962ZM194.095 224V190.4H207.775C209.599 190.4 211.247 190.864 212.719 191.792C214.223 192.688 215.423 193.92 216.319 195.488C217.215 197.056 217.663 198.8 217.663 200.72C217.663 202.64 217.215 204.384 216.319 205.952C215.423 207.52 214.223 208.784 212.719 209.744C211.247 210.672 209.599 211.136 207.775 211.136H199.279V224H194.095ZM199.279 206.144H207.679C208.543 206.144 209.327 205.904 210.031 205.424C210.735 204.912 211.295 204.256 211.711 203.456C212.159 202.624 212.383 201.712 212.383 200.72C212.383 199.728 212.159 198.832 211.711 198.032C211.295 197.232 210.735 196.592 210.031 196.112C209.327 195.632 208.543 195.392 207.679 195.392H199.279V206.144ZM224.517 224V190.4H229.701V219.008H245.445V224H224.517ZM256.509 224V207.248L256.845 209.6L243.261 190.4H249.501L259.869 205.28L258.669 205.136L268.029 190.4H273.981L260.973 210.128L261.693 206.864V224H256.509ZM274.175 224.528C273.119 224.528 272.303 224.224 271.727 223.616C271.151 222.976 270.863 222.08 270.863 220.928C270.863 219.872 271.167 219.008 271.775 218.336C272.383 217.664 273.183 217.328 274.175 217.328C275.231 217.328 276.047 217.648 276.623 218.288C277.199 218.896 277.487 219.776 277.487 220.928C277.487 221.984 277.183 222.848 276.575 223.52C275.967 224.192 275.167 224.528 274.175 224.528ZM283.081 224V219.2H288.505V195.2H283.081V190.4H299.113V195.2H293.689V219.2H299.113V224H283.081ZM320.612 224.48C318.244 224.48 316.052 224.048 314.036 223.184C312.052 222.32 310.308 221.12 308.804 219.584C307.332 218.016 306.18 216.192 305.348 214.112C304.548 212 304.148 209.696 304.148 207.2C304.148 204.704 304.548 202.416 305.348 200.336C306.18 198.224 307.332 196.4 308.804 194.864C310.308 193.296 312.052 192.08 314.036 191.216C316.052 190.352 318.244 189.92 320.612 189.92C322.98 189.92 325.156 190.352 327.14 191.216C329.156 192.08 330.9 193.296 332.372 194.864C333.876 196.432 335.028 198.272 335.828 200.384C336.66 202.464 337.076 204.736 337.076 207.2C337.076 209.664 336.66 211.952 335.828 214.064C335.028 216.144 333.876 217.968 332.372 219.536C330.9 221.104 329.156 222.32 327.14 223.184C325.156 224.048 322.98 224.48 320.612 224.48ZM320.612 219.44C322.244 219.44 323.732 219.136 325.076 218.528C326.452 217.92 327.636 217.072 328.628 215.984C329.62 214.864 330.388 213.568 330.932 212.096C331.508 210.592 331.796 208.96 331.796 207.2C331.796 205.44 331.508 203.824 330.932 202.352C330.388 200.848 329.62 199.552 328.628 198.464C327.636 197.344 326.452 196.48 325.076 195.872C323.732 195.264 322.244 194.96 320.612 194.96C318.98 194.96 317.476 195.264 316.1 195.872C314.756 196.48 313.572 197.328 312.548 198.416C311.556 199.504 310.788 200.8 310.244 202.304C309.7 203.776 309.428 205.408 309.428 207.2C309.428 208.96 309.7 210.592 310.244 212.096C310.788 213.6 311.556 214.896 312.548 215.984C313.572 217.072 314.756 217.92 316.1 218.528C317.476 219.136 318.98 219.44 320.612 219.44Z" fill="#164B60"/>
<g clip-path="url(#clip0_19_21)">
<path d="M245.553 103.569C245.553 104.869 244.276 105.918 242.693 105.918H152.402C150.829 105.918 149.542 104.869 149.542 103.569C149.542 102.269 150.829 101.22 152.402 101.22H242.693C244.276 101.22 245.553 102.268 245.553 103.569ZM242.693 113.811H152.402C150.829 113.811 149.542 114.86 149.542 116.16C149.542 117.453 150.829 118.509 152.402 118.509H242.693C244.276 118.509 245.553 117.452 245.553 116.16C245.553 114.859 244.276 113.811 242.693 113.811ZM212.68 126.394H152.402C150.829 126.394 149.542 127.443 149.542 128.743C149.542 130.043 150.829 131.1 152.402 131.1H212.68C214.263 131.1 215.54 130.043 215.54 128.743C215.54 127.443 214.263 126.394 212.68 126.394ZM152.402 93.3349C153.141 93.3349 153.867 93.1086 154.43 92.6477L156.32 91.0952C156.775 91.1959 157.249 91.3312 157.714 91.3312C159.181 91.3312 160.642 90.8689 161.766 89.947L252.572 15.3497C254.054 14.134 254.462 12.4214 253.971 10.8702C255.055 9.95531 255.055 8.49665 253.951 7.58171C252.847 6.67643 251.07 6.67643 249.948 7.55687C248.058 7.14563 245.964 7.48097 244.483 8.70641L153.667 83.3023C152.192 84.5098 151.777 86.221 152.267 87.7735L150.374 89.3246C149.255 90.2396 149.255 91.7231 150.374 92.6463C150.935 93.1086 151.676 93.3349 152.402 93.3349ZM255.621 19.8127C254.509 18.8894 252.691 18.8894 251.577 19.8127L208.769 54.9764C207.647 55.8914 207.647 57.3845 208.769 58.2981C209.322 58.759 210.066 58.9853 210.792 58.9853C211.528 58.9853 212.252 58.759 212.813 58.2981L255.621 23.1343C256.745 22.2111 256.745 20.7276 255.621 19.8127Z" fill="#164B60"/>
</g>
<defs>
<clipPath id="clip0_19_21">
<rect width="168" height="138" fill="white" transform="translate(119)"/>
</clipPath>
</defs>
</svg>
