<svg width="116" height="36" viewBox="0 0 116 36" fill="none" xmlns="http://www.w3.org/2000/svg">
<path d="M11.7372 24V14.2H17.9112V15.656H13.2492V22.544H17.9112V24H11.7372ZM12.4232 19.702V18.246H17.1412V19.702H12.4232ZM21.5968 21.032L21.5128 19.338L26.6508 14.2H28.6388L21.5968 21.032ZM20.3368 24V14.2H21.8488V24H20.3368ZM26.8328 24L23.0808 18.988L24.2008 18.022L28.7228 24H26.8328ZM32.4528 24V15.656H29.7088V14.2H36.7928V15.656H33.9648V24H32.4528ZM38.6572 24V14.2H44.8312V15.656H40.1692V22.544H44.8312V24H38.6572ZM39.3432 19.702V18.246H44.0612V19.702H39.3432ZM47.2568 24V14.2H51.2468C51.7788 14.2 52.2594 14.3353 52.6888 14.606C53.1274 14.8673 53.4774 15.2267 53.7388 15.684C54.0001 16.1413 54.1308 16.65 54.1308 17.21C54.1308 17.77 54.0001 18.2787 53.7388 18.736C53.4774 19.1933 53.1274 19.562 52.6888 19.842C52.2594 20.1127 51.7788 20.248 51.2468 20.248H48.7688V24H47.2568ZM48.7688 18.792H51.2188C51.4708 18.792 51.6994 18.722 51.9048 18.582C52.1101 18.4327 52.2734 18.2413 52.3948 18.008C52.5254 17.7653 52.5908 17.4993 52.5908 17.21C52.5908 16.9207 52.5254 16.6593 52.3948 16.426C52.2734 16.1927 52.1101 16.006 51.9048 15.866C51.6994 15.726 51.4708 15.656 51.2188 15.656H48.7688V18.792ZM56.1298 24V14.2H57.6418V22.544H62.2338V24H56.1298ZM65.461 24V19.114L65.559 19.8L61.597 14.2H63.417L66.441 18.54L66.091 18.498L68.821 14.2H70.557L66.763 19.954L66.973 19.002V24H65.461ZM70.6136 24.154C70.3056 24.154 70.0676 24.0653 69.8996 23.888C69.7316 23.7013 69.6476 23.44 69.6476 23.104C69.6476 22.796 69.7362 22.544 69.9136 22.348C70.0909 22.152 70.3242 22.054 70.6136 22.054C70.9216 22.054 71.1596 22.1473 71.3276 22.334C71.4956 22.5113 71.5796 22.768 71.5796 23.104C71.5796 23.412 71.4909 23.664 71.3136 23.86C71.1362 24.056 70.9029 24.154 70.6136 24.154ZM73.2111 24V22.6H74.7931V15.6H73.2111V14.2H77.8871V15.6H76.3051V22.6H77.8871V24H73.2111ZM84.1576 24.14C83.4669 24.14 82.8276 24.014 82.2396 23.762C81.6609 23.51 81.1523 23.16 80.7136 22.712C80.2843 22.2547 79.9483 21.7227 79.7056 21.116C79.4723 20.5 79.3556 19.828 79.3556 19.1C79.3556 18.372 79.4723 17.7047 79.7056 17.098C79.9483 16.482 80.2843 15.95 80.7136 15.502C81.1523 15.0447 81.6609 14.69 82.2396 14.438C82.8276 14.186 83.4669 14.06 84.1576 14.06C84.8483 14.06 85.4829 14.186 86.0616 14.438C86.6496 14.69 87.1583 15.0447 87.5876 15.502C88.0263 15.9593 88.3623 16.496 88.5956 17.112C88.8383 17.7187 88.9596 18.3813 88.9596 19.1C88.9596 19.8187 88.8383 20.486 88.5956 21.102C88.3623 21.7087 88.0263 22.2407 87.5876 22.698C87.1583 23.1553 86.6496 23.51 86.0616 23.762C85.4829 24.014 84.8483 24.14 84.1576 24.14ZM84.1576 22.67C84.6336 22.67 85.0676 22.5813 85.4596 22.404C85.8609 22.2267 86.2063 21.9793 86.4956 21.662C86.7849 21.3353 87.0089 20.9573 87.1676 20.528C87.3356 20.0893 87.4196 19.6133 87.4196 19.1C87.4196 18.5867 87.3356 18.1153 87.1676 17.686C87.0089 17.2473 86.7849 16.8693 86.4956 16.552C86.2063 16.2253 85.8609 15.9733 85.4596 15.796C85.0676 15.6187 84.6336 15.53 84.1576 15.53C83.6816 15.53 83.2429 15.6187 82.8416 15.796C82.4496 15.9733 82.1043 16.2207 81.8056 16.538C81.5163 16.8553 81.2923 17.2333 81.1336 17.672C80.9749 18.1013 80.8956 18.5773 80.8956 19.1C80.8956 19.6133 80.9749 20.0893 81.1336 20.528C81.2923 20.9667 81.5163 21.3447 81.8056 21.662C82.1043 21.9793 82.4496 22.2267 82.8416 22.404C83.2429 22.5813 83.6816 22.67 84.1576 22.67Z" fill="#164B60"/>
<g clip-path="url(#clip0_8_62)">
<path d="M106.097 19.0854C106.097 19.2823 105.97 19.4412 105.813 19.4412H96.8647C96.7089 19.4412 96.5813 19.2823 96.5813 19.0854C96.5813 18.8886 96.7089 18.7297 96.8647 18.7297H105.813C105.97 18.7297 106.097 18.8884 106.097 19.0854ZM105.813 20.6366H96.8647C96.7089 20.6366 96.5813 20.7955 96.5813 20.9924C96.5813 21.1882 96.7089 21.3481 96.8647 21.3481H105.813C105.97 21.3481 106.097 21.188 106.097 20.9924C106.097 20.7953 105.97 20.6366 105.813 20.6366ZM102.839 22.5423H96.8647C96.7089 22.5423 96.5813 22.7011 96.5813 22.898C96.5813 23.0949 96.7089 23.255 96.8647 23.255H102.839C102.996 23.255 103.122 23.0949 103.122 22.898C103.122 22.7011 102.996 22.5423 102.839 22.5423ZM96.8647 17.5355C96.938 17.5355 97.0099 17.5012 97.0657 17.4314L97.253 17.1963C97.2981 17.2115 97.345 17.232 97.3912 17.232C97.5365 17.232 97.6814 17.162 97.7928 17.0224L106.792 5.7247C106.939 5.54057 106.98 5.2812 106.931 5.04628C107.038 4.90771 107.038 4.6868 106.929 4.54823C106.819 4.41113 106.643 4.41113 106.532 4.54447C106.345 4.48219 106.137 4.53298 105.99 4.71857L96.9901 16.0161C96.8439 16.1989 96.8028 16.4581 96.8514 16.6932L96.6637 16.9281C96.5528 17.0667 96.5528 17.2914 96.6637 17.4312C96.7193 17.5012 96.7928 17.5355 96.8647 17.5355ZM107.094 6.4006C106.984 6.26078 106.804 6.26078 106.694 6.4006L102.451 11.7261C102.34 11.8647 102.34 12.0908 102.451 12.2292C102.506 12.299 102.58 12.3333 102.652 12.3333C102.724 12.3333 102.796 12.299 102.852 12.2292L107.094 6.90366C107.206 6.76384 107.206 6.53917 107.094 6.4006Z" fill="#164B60"/>
</g>
<rect x="0.5" y="0.5" width="115" height="35" rx="4.5" stroke="#967E76"/>
<defs>
<clipPath id="clip0_8_62">
<rect width="16.6499" height="20.9" fill="white" transform="translate(93.5544 3.39999)"/>
</clipPath>
</defs>
</svg>
