<svg width="390" height="180" viewBox="0 0 390 180" fill="none" xmlns="http://www.w3.org/2000/svg">
<path d="M96.11 143V117.8H111.986V121.544H99.998V139.256H111.986V143H96.11ZM97.874 131.948V128.204H110.006V131.948H97.874ZM121.463 135.368L121.247 131.012L134.459 117.8H139.571L121.463 135.368ZM118.223 143V117.8H122.111V143H118.223ZM134.927 143L125.279 130.112L128.159 127.628L139.787 143H134.927ZM149.379 143V121.544H142.323V117.8H160.539V121.544H153.267V143H149.379ZM165.333 143V117.8H181.209V121.544H169.221V139.256H181.209V143H165.333ZM167.097 131.948V128.204H179.229V131.948H167.097ZM187.446 143V117.8H197.706C199.074 117.8 200.31 118.148 201.414 118.844C202.542 119.516 203.442 120.44 204.114 121.616C204.786 122.792 205.122 124.1 205.122 125.54C205.122 126.98 204.786 128.288 204.114 129.464C203.442 130.64 202.542 131.588 201.414 132.308C200.31 133.004 199.074 133.352 197.706 133.352H191.334V143H187.446ZM191.334 129.608H197.634C198.282 129.608 198.87 129.428 199.398 129.068C199.926 128.684 200.346 128.192 200.658 127.592C200.994 126.968 201.162 126.284 201.162 125.54C201.162 124.796 200.994 124.124 200.658 123.524C200.346 122.924 199.926 122.444 199.398 122.084C198.87 121.724 198.282 121.544 197.634 121.544H191.334V129.608ZM210.262 143V117.8H214.15V139.256H225.958V143H210.262ZM234.257 143V130.436L234.509 132.2L224.321 117.8H229.001L236.777 128.96L235.877 128.852L242.897 117.8H247.361L237.605 132.596L238.145 130.148V143H234.257ZM247.506 143.396C246.714 143.396 246.102 143.168 245.67 142.712C245.238 142.232 245.022 141.56 245.022 140.696C245.022 139.904 245.25 139.256 245.706 138.752C246.162 138.248 246.762 137.996 247.506 137.996C248.298 137.996 248.91 138.236 249.342 138.716C249.774 139.172 249.99 139.832 249.99 140.696C249.99 141.488 249.762 142.136 249.306 142.64C248.85 143.144 248.25 143.396 247.506 143.396ZM254.186 143V139.4H258.254V121.4H254.186V117.8H266.21V121.4H262.142V139.4H266.21V143H254.186ZM282.334 143.36C280.558 143.36 278.914 143.036 277.402 142.388C275.914 141.74 274.606 140.84 273.478 139.688C272.374 138.512 271.51 137.144 270.886 135.584C270.286 134 269.986 132.272 269.986 130.4C269.986 128.528 270.286 126.812 270.886 125.252C271.51 123.668 272.374 122.3 273.478 121.148C274.606 119.972 275.914 119.06 277.402 118.412C278.914 117.764 280.558 117.44 282.334 117.44C284.11 117.44 285.742 117.764 287.23 118.412C288.742 119.06 290.05 119.972 291.154 121.148C292.282 122.324 293.146 123.704 293.746 125.288C294.37 126.848 294.682 128.552 294.682 130.4C294.682 132.248 294.37 133.964 293.746 135.548C293.146 137.108 292.282 138.476 291.154 139.652C290.05 140.828 288.742 141.74 287.23 142.388C285.742 143.036 284.11 143.36 282.334 143.36ZM282.334 139.58C283.558 139.58 284.674 139.352 285.682 138.896C286.714 138.44 287.602 137.804 288.346 136.988C289.09 136.148 289.666 135.176 290.074 134.072C290.506 132.944 290.722 131.72 290.722 130.4C290.722 129.08 290.506 127.868 290.074 126.764C289.666 125.636 289.09 124.664 288.346 123.848C287.602 123.008 286.714 122.36 285.682 121.904C284.674 121.448 283.558 121.22 282.334 121.22C281.11 121.22 279.982 121.448 278.95 121.904C277.942 122.36 277.054 122.996 276.286 123.812C275.542 124.628 274.966 125.6 274.558 126.728C274.15 127.832 273.946 129.056 273.946 130.4C273.946 131.72 274.15 132.944 274.558 134.072C274.966 135.2 275.542 136.172 276.286 136.988C277.054 137.804 277.942 138.44 278.95 138.896C279.982 139.352 281.11 139.58 282.334 139.58Z" fill="#164B60"/>
<g clip-path="url(#clip0_19_22)">
<path d="M222.862 70.547C222.862 71.4325 222.026 72.1469 220.99 72.1469H161.87C160.841 72.1469 159.998 71.4325 159.998 70.547C159.998 69.6615 160.841 68.9471 161.87 68.9471H220.99C222.026 68.9471 222.862 69.6606 222.862 70.547ZM220.99 77.5237H161.87C160.841 77.5237 159.998 78.2381 159.998 79.1236C159.998 80.0043 160.841 80.7234 161.87 80.7234H220.99C222.026 80.7234 222.862 80.0034 222.862 79.1236C222.862 78.2371 222.026 77.5237 220.99 77.5237ZM201.338 86.0946H161.87C160.841 86.0946 159.998 86.809 159.998 87.6945C159.998 88.58 160.841 89.3 161.87 89.3H201.338C202.374 89.3 203.21 88.58 203.21 87.6945C203.21 86.809 202.374 86.0946 201.338 86.0946ZM161.87 63.576C162.354 63.576 162.829 63.4218 163.198 63.1078L164.435 62.0503C164.733 62.119 165.044 62.2111 165.348 62.2111C166.309 62.2111 167.266 61.8962 168.002 61.2683L227.458 10.4556C228.428 9.62747 228.695 8.46093 228.374 7.40437C229.083 6.78115 229.083 5.78757 228.361 5.16435C227.638 4.54771 226.474 4.54771 225.739 5.14743C224.502 4.86731 223.131 5.09573 222.161 5.93045L162.698 56.7422C161.733 57.5647 161.461 58.7303 161.782 59.7878L160.542 60.8443C159.81 61.4675 159.81 62.478 160.542 63.1069C160.91 63.4218 161.395 63.576 161.87 63.576ZM229.454 13.4956C228.726 12.8667 227.536 12.8667 226.806 13.4956L198.777 37.4477C198.043 38.0709 198.043 39.088 198.777 39.7103C199.139 40.0243 199.627 40.1784 200.102 40.1784C200.584 40.1784 201.058 40.0243 201.425 39.7103L229.454 15.7582C230.19 15.1293 230.19 14.1188 229.454 13.4956Z" fill="#164B60"/>
</g>
<defs>
<clipPath id="clip0_19_22">
<rect width="110" height="94" fill="white" transform="translate(140)"/>
</clipPath>
</defs>
</svg>
